<svg version="1.1" id="Layer_1" xmlns="http://www.w3.org/2000/svg" xmlns:xlink="http://www.w3.org/1999/xlink" x="0px" y="0px"
	 width="100%" viewBox="0 0 489 510" enable-background="new 0 0 489 510" xml:space="preserve">
<path fill="#010101" opacity="1.000000" stroke="none" 
	d="
M265.000000,511.000000 
	C176.666687,511.000000 88.833374,511.000000 1.000047,511.000000 
	C1.000031,341.000061 1.000031,171.000122 1.000016,1.000138 
	C163.999893,1.000092 326.999786,1.000092 489.999756,1.000046 
	C489.999847,170.999863 489.999847,340.999725 489.999939,510.999786 
	C415.166656,511.000000 340.333344,511.000000 265.000000,511.000000 
M171.141418,213.719711 
	C170.872879,213.848831 170.702774,214.059509 169.989212,214.816940 
	C169.846085,215.039078 169.702972,215.261215 169.107346,215.719833 
	C168.351456,216.687698 167.595566,217.655563 166.210297,218.902557 
	C163.530121,222.271164 160.495758,225.418579 158.230392,229.046204 
	C147.784958,245.772781 137.649796,262.692963 127.221680,279.430542 
	C113.902573,300.808350 98.717850,320.630402 78.860123,336.503479 
	C77.199402,337.830994 76.184669,339.966644 74.477058,342.252563 
	C76.491310,342.623962 77.576332,342.921448 78.678383,343.012238 
	C90.640640,343.997528 102.432411,342.246826 113.451622,338.071472 
	C133.735397,330.385590 153.615479,321.634308 174.363174,313.439056 
	C178.909958,311.981812 183.456726,310.524567 188.575531,309.184631 
	C189.105972,308.968689 189.636429,308.752716 190.826889,308.550568 
	C191.218781,308.354797 191.610657,308.159058 192.522171,308.048523 
	C192.672958,307.958679 192.823746,307.868835 193.708069,307.813660 
	C195.802734,307.285431 197.897385,306.757202 200.531403,306.421692 
	C200.691132,306.317108 200.850861,306.212494 201.850021,306.240204 
	C207.566406,305.165436 213.282791,304.090668 219.523026,303.135620 
	C219.676346,303.042969 219.829651,302.950317 220.826736,302.998871 
	C223.884628,302.665466 226.942520,302.332062 230.934479,302.103424 
	C245.184570,302.518799 259.532745,302.054565 273.653595,303.628937 
	C284.874908,304.880066 296.265045,307.270630 306.097961,314.696045 
	C307.223877,316.327667 308.881653,317.811890 309.381989,319.616943 
	C311.355133,326.734955 313.651245,333.872192 314.517029,341.158020 
	C315.390076,348.504669 314.709290,356.035950 314.709290,363.486359 
	C315.286835,363.795624 315.864380,364.104889 316.441895,364.414154 
	C317.850037,363.246368 319.831573,362.362152 320.572357,360.864288 
	C325.049164,351.812378 329.210480,342.604919 333.566742,333.492218 
	C334.176819,332.215973 335.277740,331.174316 336.151459,330.024078 
	C336.550293,330.234039 336.949127,330.444000 337.347961,330.653961 
	C333.811340,348.306366 330.274719,365.958771 326.738068,383.611145 
	C327.374756,383.931702 328.011444,384.252258 328.648132,384.572815 
	C330.088928,383.238251 331.783691,382.089844 332.923523,380.534698 
	C336.550629,375.585907 340.085114,370.560486 343.451141,365.430634 
	C355.604767,346.908356 366.243256,327.672546 370.785126,305.667084 
	C373.735535,291.372162 374.284210,277.040833 371.987244,262.552643 
	C369.785431,248.664642 365.039764,236.061249 355.848389,225.196167 
	C348.346222,216.327850 338.872009,209.978607 329.042725,204.307022 
	C320.750092,199.522110 311.725952,196.005035 302.500122,191.416962 
	C299.355072,190.388306 296.239685,189.255753 293.060120,188.347977 
	C273.537781,182.774246 253.566544,181.088165 233.422531,182.610825 
	C223.078598,183.392731 212.762772,185.315598 202.829132,190.757507 
	C193.591919,194.650299 184.908142,199.378357 177.632355,207.180023 
	C177.430435,207.479843 177.228531,207.779663 176.418213,208.270523 
	C175.100403,209.708130 173.782593,211.145737 171.799881,213.009293 
	C171.646500,213.223206 171.493118,213.437103 171.141418,213.719711 
M157.438416,459.263245 
	C155.891678,460.007507 154.344940,460.751770 152.798187,461.496033 
	C152.966064,461.913452 153.133942,462.330841 153.301804,462.748260 
	C154.909927,462.398834 156.518036,462.049408 158.965912,461.727417 
	C160.919296,461.651642 162.872665,461.575836 165.509018,461.809998 
	C166.660339,461.452637 167.811676,461.095276 169.593338,460.749939 
	C170.004623,460.668121 170.415894,460.586304 171.467545,460.757446 
	C172.305893,460.461823 173.144257,460.166168 174.840134,459.902435 
	C178.823914,459.349213 182.807678,458.796021 187.309631,458.568726 
	C188.038208,458.268402 188.766785,457.968079 190.292999,457.473053 
	C197.782654,455.840271 205.340744,454.463928 212.739471,452.490234 
	C218.264267,451.016449 223.583328,448.771362 229.737473,446.905792 
	C231.102890,446.416077 232.468292,445.926361 234.520370,445.525513 
	C236.779404,444.569977 239.038452,443.614441 242.066391,442.568909 
	C257.440308,436.503357 271.883759,428.745697 284.851807,418.454468 
	C294.449951,410.837524 302.733673,402.367279 305.622498,389.629333 
	C310.404694,368.542450 297.791779,345.704163 277.373810,338.597595 
	C266.748474,334.899384 255.972565,332.662445 244.797241,333.212585 
	C232.990982,333.793701 221.562180,336.375336 210.219223,341.832367 
	C208.419052,342.710510 206.618896,343.588684 204.076035,344.576935 
	C202.177368,345.653809 200.278687,346.730652 197.709305,347.895203 
	C196.389877,348.580139 195.000473,349.157837 193.761475,349.966064 
	C172.803619,363.637543 150.518112,374.031342 125.335121,376.768036 
	C114.130791,377.985687 102.845299,378.843811 91.583649,379.016235 
	C83.491150,379.140106 75.379845,377.819458 67.270302,377.235046 
	C65.727165,377.123840 64.153061,377.442322 62.593243,377.562561 
	C62.413681,378.092499 62.234119,378.622467 62.054558,379.152405 
	C64.156097,380.404999 66.116272,382.328125 68.381226,382.805603 
	C89.072861,387.167938 109.872482,390.203979 131.174774,388.771179 
	C158.596268,386.926758 183.886749,378.899017 207.741028,364.019531 
	C208.770523,363.481720 209.800034,362.943939 211.510025,362.467743 
	C213.996216,361.285400 216.482422,360.103058 219.732300,358.897552 
	C232.515594,354.091400 245.685730,352.171570 259.240387,354.171722 
	C271.049835,355.914307 282.185638,366.341858 284.252228,377.585815 
	C286.253479,388.474487 281.887878,397.683960 273.721161,403.978271 
	C261.695984,413.246460 248.624664,421.157379 235.299606,429.786591 
	C233.869354,430.604736 232.439102,431.422882 230.357147,432.201721 
	C229.665207,432.713501 228.973267,433.225281 227.672226,433.781647 
	C226.784119,434.260345 225.896011,434.739044 224.362396,435.144348 
	C223.487534,435.730072 222.612671,436.315796 221.022385,436.953461 
	C215.865646,439.108582 210.776489,441.446716 205.538193,443.380981 
	C194.446503,447.476654 183.276962,451.361511 171.465195,455.130463 
	C170.655151,455.498291 169.845108,455.866119 168.311844,456.220276 
	C166.931061,456.635193 165.550278,457.050110 163.573486,457.278381 
	C163.058105,457.585052 162.542709,457.891754 161.349503,458.249451 
	C160.286179,458.636444 159.222870,459.023468 157.438416,459.263245 
M271.050995,446.543396 
	C264.538483,451.809357 258.025970,457.075287 251.513443,462.341248 
	C251.893845,462.916382 252.274261,463.491486 252.654678,464.066620 
	C260.264282,461.852112 267.100983,457.843719 274.673431,453.795074 
	C282.095245,449.405121 289.764099,445.379425 296.886597,440.548248 
	C311.069092,430.928223 324.951202,420.865356 339.607452,410.778442 
	C364.225098,392.180481 385.872131,370.665039 404.027435,345.653381 
	C419.043152,324.966919 429.407471,302.422699 432.014435,276.756744 
	C435.456360,242.869919 425.216827,213.208664 404.117126,186.863281 
	C392.970490,172.945404 379.219055,161.984970 364.487732,152.370178 
	C351.522156,143.907898 338.787811,135.359543 328.333557,123.803009 
	C326.369110,121.631393 324.272461,119.579376 322.030029,116.847649 
	C321.004181,115.801193 319.842438,114.856308 318.973175,113.692863 
	C308.234192,99.319748 297.469971,84.964638 286.849152,70.504349 
	C275.646820,55.252392 264.596619,39.888733 253.467987,24.582584 
	C251.502625,21.879467 249.449493,19.283245 245.225174,20.847517 
	C245.896729,26.881466 246.361862,32.811985 247.244354,38.679733 
	C250.655075,61.357811 253.173019,84.235992 257.975952,106.620712 
	C262.979797,129.941864 275.370270,149.440826 294.334778,164.541870 
	C310.044434,177.051132 329.624969,182.055801 346.919098,192.791000 
	C353.564209,197.983459 360.844208,202.544113 366.746613,208.475632 
	C395.277740,237.147690 399.942657,275.784241 386.241760,312.018311 
	C379.477295,329.907898 368.841156,345.564728 357.176331,360.539551 
	C349.929962,369.842072 342.403595,378.926422 334.395966,388.278381 
	C333.321869,389.536407 332.247803,390.794434 330.612000,392.299774 
	C330.320648,392.828339 330.029327,393.356934 329.099274,394.049103 
	C325.771545,397.506775 322.588715,401.119385 319.088531,404.392639 
	C309.138367,413.697754 299.058716,422.864380 288.425323,432.167542 
	C287.912720,432.764099 287.400116,433.360626 286.274445,434.132904 
	C285.194275,435.121429 284.114136,436.109985 282.417206,437.143219 
	C281.911530,437.749664 281.405853,438.356110 280.253296,439.161255 
	C277.417572,441.562927 274.581848,443.964600 271.050995,446.543396 
M465.556915,415.645538 
	C466.151489,414.465179 466.746094,413.284821 467.743408,411.536804 
	C472.141022,399.583710 477.573761,387.895630 480.716003,375.621155 
	C486.842957,351.687775 487.404999,327.364288 482.180084,303.045197 
	C478.574677,286.264008 471.850891,270.857178 462.112915,256.758606 
	C461.262604,255.527512 459.905762,254.646301 458.784210,253.602570 
	C458.283997,256.452972 458.782593,258.519012 459.301941,260.579834 
	C463.630585,277.756134 468.252472,294.865051 472.213684,312.125610 
	C476.238953,329.665466 476.383911,347.434448 473.113220,365.134491 
	C471.596252,373.343964 470.367432,381.795624 467.356323,389.491241 
	C463.767151,398.664307 458.406281,407.144196 453.212006,416.215149 
	C448.594696,422.509216 444.280914,429.055023 439.306122,435.052551 
	C420.451263,457.783813 396.465210,474.204468 371.599762,489.513885 
	C367.063293,492.306915 362.719543,495.412933 358.286804,498.374451 
	C358.704010,498.960785 359.121185,499.547089 359.538361,500.133423 
	C404.395325,489.673187 437.304199,463.122284 461.412781,423.557159 
	C462.612000,421.048096 463.811249,418.539032 465.556915,415.645538 
M249.243179,154.308594 
	C239.801285,145.715805 229.646042,137.774918 221.070068,128.390762 
	C204.619202,110.389580 189.066727,91.567474 173.136917,73.089935 
	C168.907532,68.184128 164.809357,63.149323 160.308685,58.505455 
	C159.304688,57.469505 156.800598,57.462120 155.106613,57.731724 
	C154.439209,57.837944 153.435532,60.175449 153.708908,61.195755 
	C157.677170,76.005898 160.676804,91.013321 169.888275,104.068657 
	C184.331619,124.539078 197.763519,145.720642 211.818771,166.468948 
	C215.890472,172.479568 221.912033,174.752640 229.208496,173.584213 
	C234.759674,172.695251 240.351929,172.065369 245.920135,171.279434 
	C250.683609,170.607101 255.465637,170.012451 260.180267,169.083115 
	C261.464355,168.830017 263.081970,167.699387 263.506561,166.577774 
	C263.780304,165.854706 262.372009,164.142136 261.349762,163.344177 
	C257.568085,160.392197 253.633499,157.636047 249.243179,154.308594 
M58.851669,362.166138 
	C60.075409,358.040009 61.299149,353.913849 62.820484,348.784302 
	C44.181820,351.548920 27.253744,354.059814 9.963804,356.624390 
	C20.260000,374.385223 45.020550,377.095062 58.851669,362.166138 
z"/>
<path fill="#FDF0EF" opacity="1.000000" stroke="none" 
	d="
M305.978973,314.007294 
	C296.265045,307.270630 284.874908,304.880066 273.653595,303.628937 
	C259.532745,302.054565 245.184570,302.518799 230.232178,301.783081 
	C224.632721,301.224274 223.911316,297.139984 222.734131,294.765808 
	C224.620239,291.611694 227.636185,288.908905 227.386536,286.552032 
	C226.600845,279.134644 224.444794,272.122498 225.601303,264.236420 
	C226.744171,256.443359 224.820038,248.370117 221.579239,240.819077 
	C220.711578,238.797394 221.513885,236.030624 221.655197,233.612091 
	C221.802628,231.088806 223.088333,227.007645 222.095016,226.366226 
	C219.724167,224.835266 217.594208,220.313446 213.717239,223.870834 
	C213.117355,223.315567 212.648544,223.044632 212.413071,222.638428 
	C210.089111,218.629822 204.494736,214.706741 212.452316,210.453598 
	C213.326523,209.986359 213.235641,205.992371 212.278580,204.448563 
	C211.679596,203.482376 208.586761,203.774750 206.677185,204.014374 
	C205.497101,204.162445 204.464020,205.757324 203.316956,205.819702 
	C202.051529,205.888474 200.731171,204.947189 199.434723,204.445877 
	C200.427246,203.631683 201.357956,202.228958 202.424225,202.116974 
	C205.278183,201.817245 206.407486,200.324982 205.893707,197.805634 
	C205.402908,195.398956 204.357315,193.105423 203.555618,190.762146 
	C212.762772,185.315598 223.078598,183.392731 233.422531,182.610825 
	C253.566544,181.088165 273.537781,182.774246 293.060120,188.347977 
	C296.239685,189.255753 299.355072,190.388306 302.719940,192.022446 
	C300.028076,195.395691 297.116364,198.163437 294.736908,200.425278 
	C297.904419,203.807175 300.764008,207.098419 303.879425,210.126450 
	C307.795685,213.932816 308.822357,218.461761 308.099640,223.673187 
	C307.898376,225.124191 307.621246,227.006485 308.322052,228.068665 
	C312.659119,234.642349 311.556580,242.020859 312.122864,249.230377 
	C312.544128,254.593491 312.521271,261.117401 315.521057,264.860504 
	C319.085815,269.308533 318.906891,273.395416 318.983795,278.022095 
	C319.058350,282.508148 318.678558,287.026215 319.091095,291.475250 
	C319.497345,295.856812 317.753235,298.552856 313.863403,299.837311 
	C310.588684,300.918701 310.892639,302.670410 312.030792,305.184052 
	C313.207977,307.783905 314.037720,310.541138 315.303436,314.007294 
	C311.554657,314.007294 308.766815,314.007294 305.978973,314.007294 
z"/>
<path fill="#FAEDF9" opacity="1.000000" stroke="none" 
	d="
M335.002899,388.108704 
	C342.403595,378.926422 349.929962,369.842072 357.176331,360.539551 
	C368.841156,345.564728 379.477295,329.907898 386.241760,312.018311 
	C399.942657,275.784241 395.277740,237.147690 366.746613,208.475632 
	C360.844208,202.544113 353.564209,197.983459 347.128235,192.420837 
	C352.271454,190.254883 353.846191,187.625153 350.972015,184.812180 
	C347.622711,181.534195 346.789825,178.030075 346.804413,173.672806 
	C346.810486,171.856247 345.307068,170.047760 344.545471,168.212585 
	C343.293732,165.196259 341.956543,162.205963 340.898865,159.121185 
	C339.870544,156.122147 338.709167,153.839935 335.607025,151.916351 
	C332.819855,150.188065 329.094879,144.920303 329.915039,143.281387 
	C333.944214,135.230087 327.152954,131.333054 323.855377,127.075752 
	C321.056122,123.461792 320.597260,121.067223 322.236786,117.472183 
	C324.272461,119.579376 326.369110,121.631393 328.333557,123.803009 
	C338.787811,135.359543 351.522156,143.907898 364.487732,152.370178 
	C379.219055,161.984970 392.970490,172.945404 404.117126,186.863281 
	C425.216827,213.208664 435.456360,242.869919 432.014435,276.756744 
	C429.407471,302.422699 419.043152,324.966919 404.027435,345.653381 
	C385.872131,370.665039 364.225098,392.180481 338.919281,410.837036 
	C334.404633,409.400024 331.825043,407.643707 333.740692,402.593964 
	C335.091858,399.032196 332.759979,396.031189 329.737976,393.885498 
	C330.029327,393.356934 330.320648,392.828339 331.274078,392.162415 
	C334.954620,392.282776 335.142029,390.323578 335.002899,388.108704 
z"/>
<path fill="#FBEEF4" opacity="1.000000" stroke="none" 
	d="
M306.038452,314.351685 
	C308.766815,314.007294 311.554657,314.007294 315.303436,314.007294 
	C314.037720,310.541138 313.207977,307.783905 312.030792,305.184052 
	C310.892639,302.670410 310.588684,300.918701 313.863403,299.837311 
	C317.753235,298.552856 319.497345,295.856812 319.091095,291.475250 
	C318.678558,287.026215 319.058350,282.508148 318.983795,278.022095 
	C318.906891,273.395416 319.085815,269.308533 315.521057,264.860504 
	C312.521271,261.117401 312.544128,254.593491 312.122864,249.230377 
	C311.556580,242.020859 312.659119,234.642349 308.322052,228.068665 
	C307.621246,227.006485 307.898376,225.124191 308.099640,223.673187 
	C308.822357,218.461761 307.795685,213.932816 303.879425,210.126450 
	C300.764008,207.098419 297.904419,203.807175 294.736908,200.425278 
	C297.116364,198.163437 300.028076,195.395691 302.982666,192.277359 
	C311.725952,196.005035 320.750092,199.522110 329.042725,204.307022 
	C338.872009,209.978607 348.346222,216.327850 355.848389,225.196167 
	C365.039764,236.061249 369.785431,248.664642 371.987244,262.552643 
	C374.284210,277.040833 373.735535,291.372162 370.785126,305.667084 
	C366.243256,327.672546 355.604767,346.908356 343.451141,365.430634 
	C340.085114,370.560486 336.550629,375.585907 332.923523,380.534698 
	C331.783691,382.089844 330.088928,383.238251 328.648132,384.572815 
	C328.011444,384.252258 327.374756,383.931702 326.738068,383.611145 
	C330.274719,365.958771 333.811340,348.306366 337.347961,330.653961 
	C336.949127,330.444000 336.550293,330.234039 336.151459,330.024078 
	C335.277740,331.174316 334.176819,332.215973 333.566742,333.492218 
	C329.210480,342.604919 325.049164,351.812378 320.572357,360.864288 
	C319.831573,362.362152 317.850037,363.246368 316.441895,364.414154 
	C315.864380,364.104889 315.286835,363.795624 314.709290,363.486359 
	C314.709290,356.035950 315.390076,348.504669 314.517029,341.158020 
	C313.651245,333.872192 311.355133,326.734955 309.381989,319.616943 
	C308.881653,317.811890 307.223877,316.327667 306.038452,314.351685 
z"/>
<path fill="#FAEEF4" opacity="1.000000" stroke="none" 
	d="
M322.133423,117.159912 
	C320.597260,121.067223 321.056122,123.461792 323.855377,127.075752 
	C327.152954,131.333054 333.944214,135.230087 329.915039,143.281387 
	C329.094879,144.920303 332.819855,150.188065 335.607025,151.916351 
	C338.709167,153.839935 339.870544,156.122147 340.898865,159.121185 
	C341.956543,162.205963 343.293732,165.196259 344.545471,168.212585 
	C345.307068,170.047760 346.810486,171.856247 346.804413,173.672806 
	C346.789825,178.030075 347.622711,181.534195 350.972015,184.812180 
	C353.846191,187.625153 352.271454,190.254883 346.929413,192.129608 
	C329.624969,182.055801 310.044434,177.051132 294.334778,164.541870 
	C275.370270,149.440826 262.979797,129.941864 257.975952,106.620712 
	C253.173019,84.235992 250.655075,61.357811 247.244354,38.679733 
	C246.361862,32.811985 245.896729,26.881466 245.225174,20.847517 
	C249.449493,19.283245 251.502625,21.879467 253.467987,24.582584 
	C264.596619,39.888733 275.646820,55.252392 286.849152,70.504349 
	C297.469971,84.964638 308.234192,99.319748 318.973175,113.692863 
	C319.842438,114.856308 321.004181,115.801193 322.133423,117.159912 
z"/>
<path fill="#FCF9F5" opacity="1.000000" stroke="none" 
	d="
M177.026611,208.079468 
	C177.228531,207.779663 177.430435,207.479843 178.211090,207.261414 
	C179.487457,207.191971 180.516586,207.282242 180.829681,206.851730 
	C183.115433,203.708878 184.383652,204.366760 185.131592,207.819336 
	C185.338913,208.776367 185.674698,209.705551 185.951538,210.647507 
	C185.545959,210.535721 185.140381,210.423935 184.734802,210.312134 
	C183.224854,213.909470 180.135605,217.703384 180.553558,221.060715 
	C181.287109,226.953369 177.732178,227.621307 174.096786,229.013321 
	C172.895721,229.473206 171.666718,229.860092 170.306229,230.330200 
	C173.076019,238.314270 163.401718,241.423798 163.335602,248.546677 
	C167.057388,247.023148 170.166183,245.528076 173.431015,244.558304 
	C174.335052,244.289795 175.760727,245.491791 176.841858,246.183533 
	C177.973602,246.907623 178.978760,247.829559 180.039246,248.665024 
	C180.088440,247.181152 180.160324,245.697586 180.180923,244.213318 
	C180.205673,242.427963 180.186783,240.642029 180.186783,238.856339 
	C180.695221,238.741196 181.203674,238.626053 181.712112,238.510910 
	C182.356491,243.449249 185.420090,244.630066 190.206131,243.477585 
	C188.850967,245.524704 187.975739,246.846832 186.544449,249.008957 
	C188.785553,249.795990 190.470291,250.578766 192.241501,250.970627 
	C196.154175,251.836273 200.029968,260.847229 198.195114,264.220306 
	C196.264984,267.768555 194.310410,271.506317 193.479370,275.398895 
	C192.411453,280.400940 189.897522,283.520111 184.999435,284.034546 
	C181.902222,284.359863 178.833755,284.958740 174.599640,285.613068 
	C176.968430,288.323456 178.865402,290.494019 180.698303,292.591248 
	C176.071594,292.499054 170.959106,298.000732 165.268616,292.965240 
	C165.875763,291.208405 166.463730,289.507050 167.051697,287.805664 
	C166.631073,287.468140 166.210449,287.130615 165.789810,286.793091 
	C164.429764,287.884033 163.069702,288.975006 161.420502,290.297913 
	C158.072342,288.242249 154.110550,285.809845 150.476151,283.578430 
	C150.476151,280.483765 150.476151,278.005127 150.476151,275.526489 
	C149.928833,275.461792 149.381516,275.397064 148.834198,275.332336 
	C148.389511,278.334503 147.944839,281.336639 147.463150,284.588745 
	C145.842224,284.854675 144.254333,285.115173 142.758728,285.360565 
	C142.171906,286.914551 141.907730,289.257904 141.111038,289.455627 
	C136.153671,290.686005 136.568390,294.578735 137.129822,297.840210 
	C138.008179,302.942932 139.732285,307.900085 141.321030,313.738007 
	C146.822388,307.644501 151.234665,302.757294 155.800018,297.700531 
	C158.152328,299.829163 159.976578,301.479919 162.130905,303.429382 
	C162.866425,301.107574 163.334717,299.629303 163.802994,298.151031 
	C164.326752,298.006897 164.850494,297.862762 165.374237,297.718597 
	C166.329803,299.743683 167.285370,301.768799 168.440247,304.216278 
	C169.250839,303.264954 170.085709,302.547119 170.572189,301.642059 
	C171.080490,300.696350 171.253525,299.570496 171.674316,298.191833 
	C172.942596,299.215881 173.894257,299.984253 174.845901,300.752655 
	C174.923233,300.229919 175.000580,299.707214 175.077911,299.184479 
	C181.424210,298.278961 187.696854,300.221771 193.867203,301.053223 
	C193.823196,301.070984 193.911606,301.035492 194.371445,300.954346 
	C197.162125,300.272430 199.581360,299.636230 201.994263,299.376099 
	C201.200394,304.854828 197.015167,304.867004 193.343323,305.227722 
	C191.022827,305.455658 189.473831,305.729828 190.166870,308.536774 
	C189.636429,308.752716 189.105972,308.968689 188.218170,308.753784 
	C184.446732,306.628021 174.615997,308.912720 172.581131,311.958435 
	C172.481781,312.107147 173.282318,312.857086 173.663803,313.327057 
	C153.615479,321.634308 133.735397,330.385590 113.451622,338.071472 
	C102.432411,342.246826 90.640640,343.997528 78.678383,343.012238 
	C77.576332,342.921448 76.491310,342.623962 74.477058,342.252563 
	C76.184669,339.966644 77.199402,337.830994 78.860123,336.503479 
	C98.717850,320.630402 113.902573,300.808350 127.221680,279.430542 
	C137.649796,262.692963 147.784958,245.772781 158.230392,229.046204 
	C160.495758,225.418579 163.530121,222.271164 166.561523,219.120682 
	C167.004608,220.227722 167.096466,221.116653 167.188324,222.005585 
	C167.644608,222.065704 168.100906,222.125839 168.557205,222.185974 
	C168.891434,219.951767 169.225662,217.717545 169.559875,215.483337 
	C169.702972,215.261215 169.846085,215.039078 170.523529,214.945175 
	C171.447586,215.041489 171.837311,215.009552 172.227036,214.977615 
	C171.931274,214.535416 171.635513,214.093216 171.339737,213.651016 
	C171.493118,213.437103 171.646500,213.223206 172.398163,213.115295 
	C177.355621,213.871124 176.760834,210.638046 177.026611,208.079468 
M186.454651,268.745514 
	C189.134872,263.318420 189.059555,257.834015 187.160995,251.317368 
	C178.625580,258.094086 165.627350,259.952606 168.416077,274.732910 
	C175.317825,276.044891 182.162384,277.482391 186.454651,268.745514 
z"/>
<path fill="#FFF6F1" opacity="1.000000" stroke="none" 
	d="
M193.999619,301.000000 
	C187.696854,300.221771 181.424210,298.278961 175.077911,299.184479 
	C175.000580,299.707214 174.923233,300.229919 174.845901,300.752655 
	C173.894257,299.984253 172.942596,299.215881 171.674316,298.191833 
	C171.253525,299.570496 171.080490,300.696350 170.572189,301.642059 
	C170.085709,302.547119 169.250839,303.264954 168.440247,304.216278 
	C167.285370,301.768799 166.329803,299.743683 165.374237,297.718597 
	C164.850494,297.862762 164.326752,298.006897 163.802994,298.151031 
	C163.334717,299.629303 162.866425,301.107574 162.130905,303.429382 
	C159.976578,301.479919 158.152328,299.829163 155.800018,297.700531 
	C151.234665,302.757294 146.822388,307.644501 141.321030,313.738007 
	C139.732285,307.900085 138.008179,302.942932 137.129822,297.840210 
	C136.568390,294.578735 136.153671,290.686005 141.111038,289.455627 
	C141.907730,289.257904 142.171906,286.914551 142.758728,285.360565 
	C144.254333,285.115173 145.842224,284.854675 147.463150,284.588745 
	C147.944839,281.336639 148.389511,278.334503 148.834198,275.332336 
	C149.381516,275.397064 149.928833,275.461792 150.476151,275.526489 
	C150.476151,278.005127 150.476151,280.483765 150.476151,283.578430 
	C154.110550,285.809845 158.072342,288.242249 161.420502,290.297913 
	C163.069702,288.975006 164.429764,287.884033 165.789810,286.793091 
	C166.210449,287.130615 166.631073,287.468140 167.051697,287.805664 
	C166.463730,289.507050 165.875763,291.208405 165.268616,292.965240 
	C170.959106,298.000732 176.071594,292.499054 180.698303,292.591248 
	C178.865402,290.494019 176.968430,288.323456 174.599640,285.613068 
	C178.833755,284.958740 181.902222,284.359863 184.999435,284.034546 
	C189.897522,283.520111 192.411453,280.400940 193.479370,275.398895 
	C194.310410,271.506317 196.264984,267.768555 198.195114,264.220306 
	C200.029968,260.847229 196.154175,251.836273 192.241501,250.970627 
	C190.470291,250.578766 188.785553,249.795990 186.544449,249.008957 
	C187.975739,246.846832 188.850967,245.524704 190.206131,243.477585 
	C185.420090,244.630066 182.356491,243.449249 181.712112,238.510910 
	C181.203674,238.626053 180.695221,238.741196 180.186783,238.856339 
	C180.186783,240.642029 180.205673,242.427963 180.180923,244.213318 
	C180.160324,245.697586 180.088440,247.181152 180.039246,248.665024 
	C178.978760,247.829559 177.973602,246.907623 176.841858,246.183533 
	C175.760727,245.491791 174.335052,244.289795 173.431015,244.558304 
	C170.166183,245.528076 167.057388,247.023148 163.335602,248.546677 
	C163.401718,241.423798 173.076019,238.314270 170.306229,230.330200 
	C171.666718,229.860092 172.895721,229.473206 174.096786,229.013321 
	C177.732178,227.621307 181.287109,226.953369 180.553558,221.060715 
	C180.135605,217.703384 183.224854,213.909470 184.734802,210.312134 
	C185.140381,210.423935 185.545959,210.535721 185.951538,210.647507 
	C185.674698,209.705551 185.338913,208.776367 185.131592,207.819336 
	C184.383652,204.366760 183.115433,203.708878 180.829681,206.851730 
	C180.516586,207.282242 179.487457,207.191971 178.492020,207.211182 
	C184.908142,199.378357 193.591919,194.650299 203.192383,190.759827 
	C204.357315,193.105423 205.402908,195.398956 205.893707,197.805634 
	C206.407486,200.324982 205.278183,201.817245 202.424225,202.116974 
	C201.357956,202.228958 200.427246,203.631683 199.434723,204.445877 
	C200.731171,204.947189 202.051529,205.888474 203.316956,205.819702 
	C204.464020,205.757324 205.497101,204.162445 206.677185,204.014374 
	C208.586761,203.774750 211.679596,203.482376 212.278580,204.448563 
	C213.235641,205.992371 213.326523,209.986359 212.452316,210.453598 
	C204.494736,214.706741 210.089111,218.629822 212.413071,222.638428 
	C212.648544,223.044632 213.117355,223.315567 213.717239,223.870834 
	C217.594208,220.313446 219.724167,224.835266 222.095016,226.366226 
	C223.088333,227.007645 221.802628,231.088806 221.655197,233.612091 
	C221.513885,236.030624 220.711578,238.797394 221.579239,240.819077 
	C224.820038,248.370117 226.744171,256.443359 225.601303,264.236420 
	C224.444794,272.122498 226.600845,279.134644 227.386536,286.552032 
	C227.636185,288.908905 224.620239,291.611694 222.734131,294.765808 
	C223.911316,297.139984 224.632721,301.224274 229.765152,301.730682 
	C226.942520,302.332062 223.884628,302.665466 220.297211,302.784058 
	C219.511520,302.718109 219.255341,302.867004 218.999176,303.015900 
	C213.282791,304.090668 207.566406,305.165436 201.331360,305.994720 
	C200.539139,305.909149 200.265594,306.069031 199.992035,306.228943 
	C197.897385,306.757202 195.802734,307.285431 193.228897,307.665680 
	C192.500671,307.666229 192.251617,307.814758 192.002563,307.963318 
	C191.610657,308.159058 191.218781,308.354797 190.496887,308.543671 
	C189.473831,305.729828 191.022827,305.455658 193.343323,305.227722 
	C197.015167,304.867004 201.200394,304.854828 202.336304,299.525299 
	C204.173615,298.930145 205.929718,298.939484 207.095657,298.114624 
	C209.482986,296.425690 210.976120,296.703796 212.935577,299.229156 
	C213.651276,300.151550 215.268005,300.578308 216.533844,300.730316 
	C216.859070,300.769409 217.461990,298.926025 217.848434,297.913513 
	C218.302078,296.724945 218.658783,295.499390 219.054306,294.289917 
	C214.163940,294.537140 209.250824,294.582336 204.411819,295.204285 
	C203.461166,295.326508 202.796936,297.677124 202.000610,299.000000 
	C199.581360,299.636230 197.162125,300.272430 194.371429,300.954346 
	C194.000000,301.000000 193.999619,301.000000 193.999619,301.000000 
M183.502792,287.188049 
	C183.137222,287.867401 182.771652,288.546753 182.406082,289.226105 
	C182.965042,289.374908 183.524017,289.523712 184.082993,289.672516 
	C184.112289,288.896912 184.141586,288.121338 183.502792,287.188049 
M199.667557,197.512390 
	C200.303711,197.036224 200.939865,196.560059 201.576019,196.083893 
	C201.274658,195.791641 200.973312,195.499405 200.671951,195.207153 
	C200.200897,195.813980 199.729828,196.420792 199.667557,197.512390 
M173.593170,239.803986 
	C173.208893,239.799606 172.824600,239.795227 172.440323,239.790848 
	C172.438736,239.950287 172.426361,240.248291 172.437134,240.249146 
	C172.819458,240.278961 173.203964,240.280914 173.593170,239.803986 
M165.579666,296.515503 
	C165.579666,296.515503 165.477783,296.574432 165.579666,296.515503 
M200.579636,260.516266 
	C200.579636,260.516266 200.477737,260.575226 200.579636,260.516266 
z"/>
<path fill="#F7EAE9" opacity="1.000000" stroke="none" 
	d="
M235.998947,429.646423 
	C248.624664,421.157379 261.695984,413.246460 273.721161,403.978271 
	C281.887878,397.683960 286.253479,388.474487 284.252228,377.585815 
	C282.185638,366.341858 271.049835,355.914307 259.240387,354.171722 
	C245.685730,352.171570 232.515594,354.091400 219.219604,358.603577 
	C219.267227,357.384094 219.987305,356.514801 220.338791,355.515808 
	C220.635162,354.673401 220.779434,353.564331 220.456970,352.798004 
	C220.266190,352.344635 218.853790,351.931671 218.309906,352.185181 
	C216.306259,353.119263 214.490173,354.451141 212.498520,355.416809 
	C210.832779,356.224426 209.020340,356.729523 206.948654,357.487122 
	C207.336136,352.076050 209.814041,350.080231 214.465256,350.839172 
	C214.949997,348.810699 215.359482,347.097198 215.732346,345.536896 
	C213.953033,344.160522 212.440262,342.990326 210.927490,341.820129 
	C221.562180,336.375336 232.990982,333.793701 244.797241,333.212585 
	C255.972565,332.662445 266.748474,334.899384 277.373810,338.597595 
	C297.791779,345.704163 310.404694,368.542450 305.622498,389.629333 
	C302.733673,402.367279 294.449951,410.837524 284.851807,418.454468 
	C271.883759,428.745697 257.440308,436.503357 241.538147,442.254333 
	C241.444214,440.665405 241.498398,438.801544 242.385590,438.229401 
	C244.847870,436.641541 247.656784,435.591125 251.011688,434.005615 
	C247.908188,433.233490 245.465973,432.625885 243.154907,431.957794 
	C243.184311,431.923340 243.082550,431.949341 242.687759,431.941956 
	C241.357407,432.183685 240.209106,432.261871 239.304169,432.771851 
	C236.874664,434.141113 234.549225,435.695068 232.182449,437.175629 
	C232.090530,436.878113 231.998596,436.580597 231.906662,436.283081 
	C233.270767,434.070862 234.634857,431.858643 235.998947,429.646423 
z"/>
<path fill="#F8EBEB" opacity="1.000000" stroke="none" 
	d="
M249.499786,154.557449 
	C253.633499,157.636047 257.568085,160.392197 261.349762,163.344177 
	C262.372009,164.142136 263.780304,165.854706 263.506561,166.577774 
	C263.081970,167.699387 261.464355,168.830017 260.180267,169.083115 
	C255.465637,170.012451 250.683609,170.607101 245.920135,171.279434 
	C240.351929,172.065369 234.759674,172.695251 229.208496,173.584213 
	C221.912033,174.752640 215.890472,172.479568 211.818771,166.468948 
	C197.763519,145.720642 184.331619,124.539078 169.888275,104.068657 
	C160.676804,91.013321 157.677170,76.005898 153.708908,61.195755 
	C153.435532,60.175449 154.439209,57.837944 155.106613,57.731724 
	C156.800598,57.462120 159.304688,57.469505 160.308685,58.505455 
	C164.809357,63.149323 168.907532,68.184128 173.136917,73.089935 
	C189.066727,91.567474 204.619202,110.389580 221.070068,128.390762 
	C229.646042,137.774918 239.801285,145.715805 249.499786,154.557449 
z"/>
<path fill="#F6F3EF" opacity="1.000000" stroke="none" 
	d="
M210.573364,341.826233 
	C212.440262,342.990326 213.953033,344.160522 215.732346,345.536896 
	C215.359482,347.097198 214.949997,348.810699 214.465256,350.839172 
	C209.814041,350.080231 207.336136,352.076050 206.948654,357.487122 
	C209.020340,356.729523 210.832779,356.224426 212.498520,355.416809 
	C214.490173,354.451141 216.306259,353.119263 218.309906,352.185181 
	C218.853790,351.931671 220.266190,352.344635 220.456970,352.798004 
	C220.779434,353.564331 220.635162,354.673401 220.338791,355.515808 
	C219.987305,356.514801 219.267227,357.384094 218.837769,358.615173 
	C216.482422,360.103058 213.996216,361.285400 210.750000,362.320312 
	C209.008896,362.823212 208.027817,363.473511 207.046738,364.123810 
	C183.886749,378.899017 158.596268,386.926758 131.174774,388.771179 
	C109.872482,390.203979 89.072861,387.167938 68.381226,382.805603 
	C66.116272,382.328125 64.156097,380.404999 62.054558,379.152405 
	C62.234119,378.622467 62.413681,378.092499 62.593243,377.562561 
	C64.153061,377.442322 65.727165,377.123840 67.270302,377.235046 
	C75.379845,377.819458 83.491150,379.140106 91.583649,379.016235 
	C102.845299,378.843811 114.130791,377.985687 125.335121,376.768036 
	C150.518112,374.031342 172.803619,363.637543 193.761475,349.966064 
	C195.000473,349.157837 196.389877,348.580139 198.500427,347.903625 
	C201.824081,347.870819 204.940094,348.765656 204.818726,344.466827 
	C206.618896,343.588684 208.419052,342.710510 210.573364,341.826233 
z"/>
<path fill="#F3E5F2" opacity="1.000000" stroke="none" 
	d="
M453.812958,415.924347 
	C458.406281,407.144196 463.767151,398.664307 467.356323,389.491241 
	C470.367432,381.795624 471.596252,373.343964 473.113220,365.134491 
	C476.383911,347.434448 476.238953,329.665466 472.213684,312.125610 
	C468.252472,294.865051 463.630585,277.756134 459.301941,260.579834 
	C458.782593,258.519012 458.283997,256.452972 458.784210,253.602570 
	C459.905762,254.646301 461.262604,255.527512 462.112915,256.758606 
	C471.850891,270.857178 478.574677,286.264008 482.180084,303.045197 
	C487.404999,327.364288 486.842957,351.687775 480.716003,375.621155 
	C477.573761,387.895630 472.141022,399.583710 467.222076,411.942627 
	C466.137329,413.575592 465.573883,414.802765 465.010437,416.029968 
	C463.811249,418.539032 462.612000,421.048096 460.738617,423.778442 
	C458.230865,424.294403 456.397278,424.589050 454.501007,424.893768 
	C454.237457,421.458252 454.025208,418.691315 453.812958,415.924347 
z"/>
<path fill="#F3E4ED" opacity="1.000000" stroke="none" 
	d="
M453.512482,416.069763 
	C454.025208,418.691315 454.237457,421.458252 454.501007,424.893768 
	C456.397278,424.589050 458.230865,424.294403 460.453857,423.976318 
	C437.304199,463.122284 404.395325,489.673187 359.538361,500.133423 
	C359.121185,499.547089 358.704010,498.960785 358.286804,498.374451 
	C362.719543,495.412933 367.063293,492.306915 371.599762,489.513885 
	C396.465210,474.204468 420.451263,457.783813 439.306122,435.052551 
	C444.280914,429.055023 448.594696,422.509216 453.512482,416.069763 
z"/>
<path fill="#F9EBF4" opacity="1.000000" stroke="none" 
	d="
M329.418640,393.967285 
	C332.759979,396.031189 335.091858,399.032196 333.740692,402.593964 
	C331.825043,407.643707 334.404633,409.400024 338.594238,410.940521 
	C324.951202,420.865356 311.069092,430.928223 296.886597,440.548248 
	C289.764099,445.379425 282.095245,449.405121 274.170135,453.513916 
	C273.026611,450.943909 272.386383,448.655090 271.746155,446.366272 
	C274.581848,443.964600 277.417572,441.562927 280.901672,439.048401 
	C282.044678,438.323181 282.539337,437.710846 283.033997,437.098541 
	C284.114136,436.109985 285.194275,435.121429 286.908081,434.031952 
	C288.037811,433.315857 288.533936,432.700684 289.030029,432.085510 
	C299.058716,422.864380 309.138367,413.697754 319.088531,404.392639 
	C322.588715,401.119385 325.771545,397.506775 329.418640,393.967285 
z"/>
<path fill="#F5F3EE" opacity="1.000000" stroke="none" 
	d="
M58.622444,362.455811 
	C45.020550,377.095062 20.260000,374.385223 9.963804,356.624390 
	C27.253744,354.059814 44.181820,351.548920 62.820484,348.784302 
	C61.299149,353.913849 60.075409,358.040009 58.622444,362.455811 
z"/>
<path fill="#F8F3F0" opacity="1.000000" stroke="none" 
	d="
M243.023743,432.018280 
	C245.465973,432.625885 247.908188,433.233490 251.011688,434.005615 
	C247.656784,435.591125 244.847870,436.641541 242.385590,438.229401 
	C241.498398,438.801544 241.444214,440.665405 241.153702,442.299347 
	C239.038452,443.614441 236.779404,444.569977 233.787231,445.347015 
	C231.345963,444.888916 228.905075,442.860535 228.994019,446.869751 
	C223.583328,448.771362 218.264267,451.016449 212.739471,452.490234 
	C205.340744,454.463928 197.782654,455.840271 189.621094,457.397705 
	C188.229935,457.629150 187.510696,457.935974 186.791443,458.242798 
	C182.807678,458.796021 178.823914,459.349213 174.239868,459.650299 
	C172.702118,459.766907 171.764648,460.135681 170.827179,460.504456 
	C170.415894,460.586304 170.004623,460.668121 169.065170,460.514313 
	C167.300018,460.685822 166.063034,461.092926 164.826050,461.500061 
	C162.872665,461.575836 160.919296,461.651642 158.543640,461.422363 
	C158.134109,460.548340 158.146820,459.979401 158.159546,459.410461 
	C159.222870,459.023468 160.286179,458.636444 161.835770,458.438782 
	C162.937851,458.240387 163.553680,457.852692 164.169510,457.465027 
	C165.550278,457.050110 166.931061,456.635193 168.842972,456.478119 
	C170.295853,456.268250 171.217606,455.800537 172.139343,455.332825 
	C183.276962,451.361511 194.446503,447.476654 205.538193,443.380981 
	C210.776489,441.446716 215.865646,439.108582 221.738297,436.958069 
	C223.305435,436.381042 224.156677,435.799408 225.007904,435.217773 
	C225.896011,434.739044 226.784119,434.260345 228.339508,433.818420 
	C229.674133,433.317139 230.341476,432.779053 231.008835,432.240997 
	C232.439102,431.422882 233.869354,430.604736 235.649277,429.716492 
	C234.634857,431.858643 233.270767,434.070862 231.906662,436.283081 
	C231.998596,436.580597 232.090530,436.878113 232.182449,437.175629 
	C234.549225,435.695068 236.874664,434.141113 239.304169,432.771851 
	C240.209106,432.261871 241.357407,432.183685 242.697388,431.953857 
	C243.000031,431.999115 243.023743,432.018280 243.023743,432.018280 
z"/>
<path fill="#F0E2E5" opacity="1.000000" stroke="none" 
	d="
M271.398560,446.454834 
	C272.386383,448.655090 273.026611,450.943909 273.821960,453.579712 
	C267.100983,457.843719 260.264282,461.852112 252.654678,464.066620 
	C252.274261,463.491486 251.893845,462.916382 251.513443,462.341248 
	C258.025970,457.075287 264.538483,451.809357 271.398560,446.454834 
z"/>
<path fill="#FFF6F1" opacity="1.000000" stroke="none" 
	d="
M174.013489,313.383057 
	C173.282318,312.857086 172.481781,312.107147 172.581131,311.958435 
	C174.615997,308.912720 184.446732,306.628021 187.932159,308.695129 
	C183.456726,310.524567 178.909958,311.981812 174.013489,313.383057 
z"/>
<path fill="#FFF6F1" opacity="1.000000" stroke="none" 
	d="
M169.333618,215.601593 
	C169.225662,217.717545 168.891434,219.951767 168.557205,222.185974 
	C168.100906,222.125839 167.644608,222.065704 167.188324,222.005585 
	C167.096466,221.116653 167.004608,220.227722 166.876221,218.981110 
	C167.595566,217.655563 168.351456,216.687698 169.333618,215.601593 
z"/>
<path fill="#FFF6F1" opacity="1.000000" stroke="none" 
	d="
M176.722412,208.174988 
	C176.760834,210.638046 177.355621,213.871124 172.730621,212.902313 
	C173.782593,211.145737 175.100403,209.708130 176.722412,208.174988 
z"/>
<path fill="#F7EAE9" opacity="1.000000" stroke="none" 
	d="
M204.447388,344.521881 
	C204.940094,348.765656 201.824081,347.870819 198.835785,347.859802 
	C200.278687,346.730652 202.177368,345.653809 204.447388,344.521881 
z"/>
<path fill="#AAA39F" opacity="1.000000" stroke="none" 
	d="
M157.798981,459.336853 
	C158.146820,459.979401 158.134109,460.548340 158.123779,461.408630 
	C156.518036,462.049408 154.909927,462.398834 153.301804,462.748260 
	C153.133942,462.330841 152.966064,461.913452 152.798187,461.496033 
	C154.344940,460.751770 155.891678,460.007507 157.798981,459.336853 
z"/>
<path fill="#F7EAE9" opacity="1.000000" stroke="none" 
	d="
M229.365753,446.887756 
	C228.905075,442.860535 231.345963,444.888916 233.443909,445.302582 
	C232.468292,445.926361 231.102890,446.416077 229.365753,446.887756 
z"/>
<path fill="#F9EBF4" opacity="1.000000" stroke="none" 
	d="
M334.699432,388.193542 
	C335.142029,390.323578 334.954620,392.282776 331.554932,392.038757 
	C332.247803,390.794434 333.321869,389.536407 334.699432,388.193542 
z"/>
<path fill="#AAA39F" opacity="1.000000" stroke="none" 
	d="
M165.167542,461.655029 
	C166.063034,461.092926 167.300018,460.685822 168.750000,460.508301 
	C167.811676,461.095276 166.660339,461.452637 165.167542,461.655029 
z"/>
<path fill="#AAA39F" opacity="1.000000" stroke="none" 
	d="
M171.147369,460.630951 
	C171.764648,460.135681 172.702118,459.766907 173.811096,459.634338 
	C173.144257,460.166168 172.305893,460.461823 171.147369,460.630951 
z"/>
<path fill="#AAA39F" opacity="1.000000" stroke="none" 
	d="
M171.802277,455.231628 
	C171.217606,455.800537 170.295853,456.268250 169.204590,456.484985 
	C169.845108,455.866119 170.655151,455.498291 171.802277,455.231628 
z"/>
<path fill="#F7EAE9" opacity="1.000000" stroke="none" 
	d="
M207.393890,364.071655 
	C208.027817,363.473511 209.008896,362.823212 210.409744,362.289490 
	C209.800034,362.943939 208.770523,363.481720 207.393890,364.071655 
z"/>
<path fill="#F7EAE9" opacity="1.000000" stroke="none" 
	d="
M224.685150,435.181061 
	C224.156677,435.799408 223.305435,436.381042 222.096008,436.932098 
	C222.612671,436.315796 223.487534,435.730072 224.685150,435.181061 
z"/>
<path fill="#F3E4ED" opacity="1.000000" stroke="none" 
	d="
M465.283691,415.837769 
	C465.573883,414.802765 466.137329,413.575592 467.020691,412.226440 
	C466.746094,413.284821 466.151489,414.465179 465.283691,415.837769 
z"/>
<path fill="#F7EAE9" opacity="1.000000" stroke="none" 
	d="
M230.682983,432.221375 
	C230.341476,432.779053 229.674133,433.317139 228.644058,433.796143 
	C228.973267,433.225281 229.665207,432.713501 230.682983,432.221375 
z"/>
<path fill="#F0E2E5" opacity="1.000000" stroke="none" 
	d="
M288.727692,432.126526 
	C288.533936,432.700684 288.037811,433.315857 287.214600,433.944092 
	C287.400116,433.360626 287.912720,432.764099 288.727692,432.126526 
z"/>
<path fill="#F0E2E5" opacity="1.000000" stroke="none" 
	d="
M282.725586,437.120880 
	C282.539337,437.710846 282.044678,438.323181 281.225098,438.949036 
	C281.405853,438.356110 281.911530,437.749664 282.725586,437.120880 
z"/>
<path fill="#AAA39F" opacity="1.000000" stroke="none" 
	d="
M163.871490,457.371704 
	C163.553680,457.852692 162.937851,458.240387 162.174683,458.413269 
	C162.542709,457.891754 163.058105,457.585052 163.871490,457.371704 
z"/>
<path fill="#AAA39F" opacity="1.000000" stroke="none" 
	d="
M187.050537,458.405762 
	C187.510696,457.935974 188.229935,457.629150 189.222275,457.495056 
	C188.766785,457.968079 188.038208,458.268402 187.050537,458.405762 
z"/>
<path fill="#FFF6F1" opacity="1.000000" stroke="none" 
	d="
M171.240570,213.685364 
	C171.635513,214.093216 171.931274,214.535416 172.227036,214.977615 
	C171.837311,215.009552 171.447586,215.041489 170.844482,214.712585 
	C170.702774,214.059509 170.872879,213.848831 171.240570,213.685364 
z"/>
<path fill="#FDF0EF" opacity="1.000000" stroke="none" 
	d="
M219.261108,303.075745 
	C219.255341,302.867004 219.511520,302.718109 219.875305,302.713440 
	C219.829651,302.950317 219.676346,303.042969 219.261108,303.075745 
z"/>
<path fill="#FDF0EF" opacity="1.000000" stroke="none" 
	d="
M200.261719,306.325317 
	C200.265594,306.069031 200.539139,305.909149 200.911652,305.928589 
	C200.850861,306.212494 200.691132,306.317108 200.261719,306.325317 
z"/>
<path fill="#FDF0EF" opacity="1.000000" stroke="none" 
	d="
M192.262360,308.005920 
	C192.251617,307.814758 192.500671,307.666229 192.862122,307.648346 
	C192.823746,307.868835 192.672958,307.958679 192.262360,308.005920 
z"/>
<path fill="#090808" opacity="1.000000" stroke="none" 
	d="
M186.316925,269.105957 
	C182.162384,277.482391 175.317825,276.044891 168.416077,274.732910 
	C165.627350,259.952606 178.625580,258.094086 187.160995,251.317368 
	C189.059555,257.834015 189.134872,263.318420 186.316925,269.105957 
z"/>
<path fill="#FFF6F1" opacity="1.000000" stroke="none" 
	d="
M194.000000,301.000000 
	C193.911606,301.035492 193.823196,301.070984 193.867203,301.053223 
	C193.999619,301.000000 194.000000,301.000000 194.000000,301.000000 
z"/>
<path fill="#FFFBFA" opacity="1.000000" stroke="none" 
	d="
M202.342621,299.149200 
	C202.796936,297.677124 203.461166,295.326508 204.411819,295.204285 
	C209.250824,294.582336 214.163940,294.537140 219.054306,294.289917 
	C218.658783,295.499390 218.302078,296.724945 217.848434,297.913513 
	C217.461990,298.926025 216.859070,300.769409 216.533844,300.730316 
	C215.268005,300.578308 213.651276,300.151550 212.935577,299.229156 
	C210.976120,296.703796 209.482986,296.425690 207.095657,298.114624 
	C205.929718,298.939484 204.173615,298.930145 202.342621,299.149200 
z"/>
<path fill="#FCF9F5" opacity="1.000000" stroke="none" 
	d="
M183.836838,287.266907 
	C184.141586,288.121338 184.112289,288.896912 184.082977,289.672516 
	C183.524017,289.523712 182.965042,289.374908 182.406067,289.226105 
	C182.771652,288.546753 183.137222,287.867401 183.836838,287.266907 
z"/>
<path fill="#FDF0EF" opacity="1.000000" stroke="none" 
	d="
M199.463165,197.270004 
	C199.729828,196.420792 200.200897,195.813980 200.671951,195.207153 
	C200.973312,195.499405 201.274658,195.791641 201.576019,196.083893 
	C200.939865,196.560059 200.303711,197.036224 199.463165,197.270004 
z"/>
<path fill="#FCF9F5" opacity="1.000000" stroke="none" 
	d="
M173.590668,240.045380 
	C173.203964,240.280914 172.819458,240.278961 172.437134,240.249146 
	C172.426361,240.248291 172.438736,239.950287 172.440323,239.790848 
	C172.824600,239.795227 173.208893,239.799606 173.590668,240.045380 
z"/>
<path fill="#FCF9F5" opacity="1.000000" stroke="none" 
	d="
M165.528717,296.544983 
	C165.477783,296.574432 165.579666,296.515503 165.528717,296.544983 
z"/>
<path fill="#FCF9F5" opacity="1.000000" stroke="none" 
	d="
M200.528687,260.545746 
	C200.477737,260.575226 200.579636,260.516266 200.528687,260.545746 
z"/>
<path fill="#F8F3F0" opacity="1.000000" stroke="none" 
	d="
M242.990417,431.987244 
	C243.082550,431.949341 243.184311,431.923340 243.154907,431.957794 
	C243.023743,432.018280 243.000031,431.999115 242.990417,431.987244 
z"/>
</svg>